<?xml version="1.0" standalone="no"?>
<!DOCTYPE svg PUBLIC "-//W3C//DTD SVG 20010904//EN"
 "http://www.w3.org/TR/2001/REC-SVG-20010904/DTD/svg10.dtd">
<svg version="1.0" xmlns="http://www.w3.org/2000/svg"
 width="700.000000pt" height="700.000000pt" viewBox="0 0 700.000000 700.000000"
 preserveAspectRatio="xMidYMid meet">
<metadata>
Created by potrace 1.14, written by Peter Selinger 2001-2017
</metadata>
<g transform="translate(0.000000,700.000000) scale(0.100000,-0.100000)"
fill="#000000" stroke="none">
<path d="M3259 5495 c-2 -1 -53 -6 -114 -10 -60 -3 -117 -8 -125 -10 -8 -2
-37 -6 -65 -9 -669 -77 -1332 -338 -1770 -696 -126 -103 -165 -141 -267 -255
-224 -251 -356 -519 -403 -820 -14 -87 -14 -337 -1 -395 3 -14 9 -41 12 -60
19 -111 88 -302 152 -420 285 -525 921 -966 1690 -1171 62 -17 121 -32 132
-35 11 -2 28 -6 38 -8 56 -14 111 -25 142 -30 19 -3 76 -12 125 -20 96 -16
132 -21 235 -32 36 -3 79 -8 95 -11 81 -11 602 -9 730 3 194 18 258 24 275 29
8 2 35 7 60 10 346 47 807 195 1135 364 361 187 660 433 866 711 108 145 221
378 255 525 6 26 23 111 31 150 12 67 11 323 -3 400 -66 389 -265 719 -618
1021 -432 372 -1072 640 -1736 729 -25 3 -56 8 -70 10 -14 2 -56 7 -95 11 -38
4 -79 9 -90 11 -27 4 -612 13 -616 8z m601 -410 c70 -7 319 -41 360 -50 14 -2
50 -10 80 -16 488 -97 978 -320 1295 -587 93 -78 191 -178 244 -248 17 -21 36
-45 43 -53 27 -32 110 -181 138 -249 56 -134 74 -222 74 -377 1 -190 -33 -324
-120 -485 -145 -264 -328 -442 -699 -678 -31 -19 -264 -136 -315 -157 -169
-70 -468 -166 -595 -191 -11 -2 -31 -6 -45 -9 -14 -3 -36 -8 -50 -11 -37 -8
-134 -24 -175 -29 -5 -1 -37 -5 -70 -9 -33 -4 -71 -10 -85 -12 -167 -26 -666
-25 -895 2 -386 45 -790 156 -1100 303 -500 238 -843 561 -980 925 -46 123
-59 201 -59 351 1 118 5 155 27 240 135 509 681 959 1447 1192 167 51 389 100
560 123 47 6 99 13 115 16 17 2 75 7 130 10 55 4 102 8 104 10 6 5 500 -4 571
-11z"/>
<path d="M3189 4728 c0 -23 -2 -50 -3 -58 -2 -8 -7 -62 -10 -120 -4 -58 -9
-118 -11 -135 -5 -36 -13 -140 -21 -255 -13 -202 -115 -379 -238 -415 -74 -22
-116 -19 -184 16 -137 68 -222 231 -223 426 -1 111 13 191 54 298 7 17 12 32
12 35 0 3 18 38 38 79 l38 73 -28 -6 c-152 -37 -396 -131 -559 -216 -335 -174
-562 -384 -680 -625 -55 -114 -76 -204 -77 -325 -1 -161 49 -300 166 -463 114
-158 237 -273 417 -390 78 -50 277 -157 294 -157 4 0 -8 25 -25 56 -113 204
-109 378 11 442 38 20 55 23 113 19 164 -10 338 -153 471 -389 l19 -33 7 25
c17 56 60 137 94 177 72 82 173 104 269 58 90 -43 199 -172 265 -315 37 -80
92 -246 92 -276 0 -13 6 -26 13 -30 6 -4 9 -4 6 0 -7 7 29 153 54 223 109 295
325 477 490 413 72 -29 155 -143 173 -238 5 -26 9 -30 20 -21 8 6 14 15 14 20
0 5 20 39 44 77 167 260 439 381 579 257 55 -49 78 -161 51 -252 -6 -24 -10
-43 -9 -43 2 0 -11 -34 -30 -75 l-34 -74 27 12 c97 42 269 148 377 232 81 63
211 189 242 235 9 14 19 27 23 30 22 19 66 100 100 185 47 116 61 192 61 335
1 80 -5 122 -21 175 -119 386 -573 734 -1207 928 -46 14 -83 23 -83 21 0 -3
12 -28 26 -56 39 -76 73 -172 89 -246 18 -87 17 -246 -2 -319 -32 -123 -111
-231 -202 -275 -201 -98 -391 81 -416 392 -5 65 -9 105 -20 235 -3 39 -8 93
-10 120 -1 28 -6 88 -10 135 -13 148 -10 147 -85 50 -19 -25 -47 -59 -62 -76
l-28 -30 -162 0 -161 1 -61 84 c-34 47 -67 86 -74 89 -8 2 -12 -10 -13 -40z"/>
</g>
</svg>
